<?xml version="1.0" encoding="utf-8"?>
<!-- Generator: Adobe Illustrator 16.0.4, SVG Export Plug-In . SVG Version: 6.00 Build 0)  -->
<!DOCTYPE svg PUBLIC "-//W3C//DTD SVG 1.1//EN" "http://www.w3.org/Graphics/SVG/1.1/DTD/svg11.dtd">
<svg version="1.1"
	 id="svg2394" xmlns:svg="http://www.w3.org/2000/svg" xmlns:dc="http://purl.org/dc/elements/1.1/" xmlns:inkscape="http://www.inkscape.org/namespaces/inkscape" xmlns:rdf="http://www.w3.org/1999/02/22-rdf-syntax-ns#" xmlns:cc="http://web.resource.org/cc/" xmlns:sodipodi="http://sodipodi.sourceforge.net/DTD/sodipodi-0.dtd" inkscape:export-filename="C:\Documents and Settings\Dylan Kane\Desktop\Cal-athletic-logo.png" inkscape:export-xdpi="29.982681" inkscape:export-ydpi="29.982681" sodipodi:version="0.32" sodipodi:docbase="C:\Documents and Settings\Dylan Kane\Desktop" inkscape:version="0.45.1" sodipodi:docname="Cal-athletic-logo.svg" inkscape:output_extension="org.inkscape.output.svg.inkscape"
	 xmlns="http://www.w3.org/2000/svg" xmlns:xlink="http://www.w3.org/1999/xlink" x="0px" y="0px" width="500px" height="398.23px"
	 viewBox="0 0 500 398.23" enable-background="new 0 0 500 398.23" xml:space="preserve">
<sodipodi:namedview  inkscape:cy="166.4403" objecttolerance="10.0" borderopacity="1.0" guidetolerance="10.0" gridtolerance="10.0" pagecolor="#ffffff" bordercolor="#666666" id="base" inkscape:cx="343.98185" inkscape:zoom="1.5774059" inkscape:window-height="998" inkscape:pageopacity="0.0" inkscape:pageshadow="2" inkscape:window-width="1122" inkscape:window-x="150" inkscape:window-y="0" inkscape:current-layer="svg2394">
	</sodipodi:namedview>
<path id="outline" sodipodi:nodetypes="csssssscccssscccscccssssssssssssssssssssssssssscccssssssssscccssssssssssccsssccsssc" inkscape:export-xdpi="300.10001" inkscape:export-ydpi="300.10001" fill="#F6B211" d="
	M1.223,397.436c-4.86-4.858,2.649-17.598,5.944-21.819c6.055-7.761,15.174-14.638,23.333-20
	c16.087-10.575,30.995-17.105,49.571-22.054c26.387-7.028,53.872-7.834,81.03-7.808c81.926,0.078,131.029,8.392,203.398,9.86
	c5.858,0.119,40.25,1.5,49.244-6.01c-19.411-3.824-32.078-8.992-42.078-15.824c-4.309-2.943-14.332-13.332-16.832-18.166
	c-22.621,15.019-50.084,29-78.834,27.75c-13.174-0.573-26-6-30.666-13.745c-9.834,8.496-22.974,12.155-32.674,13.409
	c-16.133,2.084-33.019-1.971-45.081-13.279c-1.612-1.512-6.413-7.134-7.476-8.711c-3.104,2.743-11.229,7.73-12.847,8.604
	c-30.457,16.445-68.911,19.463-99.636,1.862C17.81,294.43,9.298,262.168,11.198,229.752c4.409-75.239,57.667-140.45,115.969-183.47
	c27.756-20.481,61.866-39.196,96.389-44.62c12.904-2.027,30.476-4.475,42.182,2.977c12.023,7.655,15.423,21.881,14.002,35.431
	c-3.239,30.879-31.46,67.583-63.239,67.545c-13.665-0.016-24.899-10.44-21.333-24.333c3.92-15.267,19.796-18.447,33.102-22.234
	c10.756-3.062,19.579-8.801,18.476-21.483c-1.145-13.168-23.911-4.616-31.911-0.616c-28.029,14.015-47.417,37.948-66.008,62.764
	c-31.186,41.631-57.46,93.412-54.166,146.5c1.44,23.199,21.224,47.393,44.947,29.738c12.124-9.021,17.836-25.192,24.765-37.992
	c8.402-15.52,18.809-29.348,31.706-41.415c13.32-12.463,28.908-22.209,46.484-27.357c7.265-2.128,15.356-4.131,22.998-4.193
	c16.065-0.129,14.857,6.621,17.815,3.121c4.07-4.816,13.375-3.75,27.375-3.25c14.493,0.518,19.583,0.25,22.083,6.75
	c2.678,6.961-6.822,25.722-18.083,54.25c-10.601,26.854-22.04,53.1-14.5,57c8.192,4.236,20.665-5.205,27.743-9.816
	c7.843-5.109,11.757-7.934,15.257-11.434c-2.157-30.713,1.432-68.421,12.942-97.137c13.778-34.374,34.177-66.698,60.308-92.863
	c13.564-13.581,62-50,78.191-33.201c7.749,8.04,6.012,24.043,4.594,34.081c-2.049,14.497-18.895,57.132-43.785,98.62
	c-12.338,20.564-44.667,63.5-50.667,72.5c-1.333,15.667,6.696,33.719,17,44.333c11.966,12.327,24.588,13.827,39.433,20.106
	c16.771,7.094,15.767,19.465,5.632,32.129c-21.433,26.776-48.036,37.106-80.396,43.432c-37.48,7.326-83.5,4-120.986,2.734
	c-32.23-1.089-69.199-3.955-101.514-5.234c-36.127-1.43-76.026-1.066-108.5,4.501c-11.667,2-21.408,4.845-31.333,7.333
	C19.634,396.085,5.362,401.576,1.223,397.436 M255.75,238.115c5.5-12,14-32.25,14.5-38.25c0.426-5.111-19.727-0.839-38.75,33.417
	c-5.366,9.661-15.75,42.083-4.5,44.833S250.474,249.626,255.75,238.115z M441.167,138.282c10.167-17.917,22.392-43.69,25.333-52.417
	c-5.024,2.977-20.062,20.487-30.333,36.75c-12,19-27.245,53.395-26.667,64.5C414.172,181.135,431.495,155.326,441.167,138.282z"/>
<path id="text" fill="#172677" d="M7.998,390.846c0.885-2.912,3.187-7.373,5.478-10.311c4.416-5.66,11.623-11.795,21.419-18.234
	c15.107-9.93,29.234-16.214,47.236-21.008c26.114-6.956,53.793-7.539,77.686-7.539l1.276,0.002
	c31.8,0.029,99.796,4.037,149.443,6.965c26.056,1.533,46.635,2.748,53.804,2.894l1.282,0.032c2.098,0.053,5.606,0.145,9.814,0.145
	c30.296,0,40.641-4.743,45.313-7.425c5.084-2.917,10.417-7.083,10-10c-0.607-4.247-11.249-3.917-15.235-4.563
	c-15.851-2.566-29.515-8.854-39.334-15.791c-11.251-7.949-18.337-21.996-18.337-21.996l-7.435,4.936
	c-27.223,18.072-49.722,26.49-70.806,26.492c-1.086,0-2.182-0.023-3.258-0.07c-12.145-0.527-21.513-5.482-24.158-9.878l-4.898-8.136
	l-7.186,6.207c-9.643,8.33-23.121,10.836-28.469,11.527c-2.359,0.307-4.75,0.461-7.107,0.461c-12.293,0-23.472-4.135-31.479-11.642
	c-1.181-1.106-5.535-6.216-6.318-7.354l-5.12-7.437l-6.805,5.922c-2.393,2.114-9.849,6.75-11.351,7.562
	c-15.509,8.373-32.661,12.801-49.598,12.801c-15.263,0-29.876-3.748-42.261-10.842c-29.4-16.842-33.854-49.725-32.415-74.344
	c1.97-33.611,14.218-67.185,36.403-99.787c19.13-28.111,45.524-54.984,76.331-77.715c22.436-16.556,56.765-37.48,92.88-43.154
	c6.354-0.998,13.106-1.972,19.666-1.972c7.415,0,12.97,1.24,16.979,3.795c10.815,6.886,11.123,20.402,10.343,27.847
	c-2.87,27.346-28.147,60.377-55.235,60.379c-5.007-0.004-9.479-1.953-12.002-5.208c-1.982-2.559-2.531-5.633-1.631-9.136
	c2.293-8.932,10.71-11.861,24.301-15.622c1.093-0.302,2.176-0.602,3.242-0.906c21.662-6.165,25.146-19.647,24.256-29.87
	c-0.604-6.943-5.488-14.363-17.388-14.363c-11.178,0-24.58,6.539-26.071,7.284c-29.603,14.801-49.451,39.251-68.834,65.125
	c-39.934,53.31-58.689,104.378-55.748,151.791c1.293,20.832,15.69,43.314,36.696,43.314c7.118,0,14.187-2.574,21.011-7.654
	c10.957-8.15,17.143-20.755,22.604-31.874c1.512-3.082,2.942-5.994,4.42-8.728c8.258-15.25,18.074-28.903,30.095-40.151
	c13.263-12.408,27.198-20.337,42.5-25.333c8.167-2.667,15.492-3.813,24.5-3.667c8.492,0.137,13,5.5,15,9
	c1.5-2.917,3.833-8.083,4.75-8.833c0.841-0.688,15.439-0.62,20-0.417c3.75,0.167,15.354,0.112,16.75,1.625
	c1.646,1.787-3,11.5-8.153,25.309c-2.392,6.407-5.909,14.165-9.565,23.701c-1.424,3.712-2.875,7.409-4.293,11.032
	c-11.631,29.666-19.314,49.266-6.414,55.938c2.518,1.303,5.322,1.963,8.34,1.963c9.224,0,18.471-6.188,25.222-10.705
	c0.79-0.526,1.534-1.024,2.227-1.477c7.903-5.15,12.396-8.33,16.545-12.48l2.581-2.578l-0.256-3.637
	c-2.313-32.91,2.436-68.774,12.389-93.602c13.827-34.499,34.072-65.684,58.541-90.185c12.268-12.285,43.079-34.595,60.007-34.988
	c14.333-0.333,10.305,24.905,9,30.833c-2.833,12.874-17.924,52.878-42.527,93.884c-8.311,13.852-26.416,38.8-38.396,55.31
	c-5.647,7.783-10.108,13.93-12.067,16.869l-1.14,1.709l-0.175,2.049c-1.661,19.547,8.462,39.489,19.231,50.586
	c10.099,10.403,20.793,14.162,31.134,17.797c3.544,1.248,7.209,2.535,10.922,4.105c3.188,1.35,7.152,3.602,7.933,6.68
	c0.77,3.041-1.209,7.808-5.429,13.08c-21.502,26.867-49.083,35.381-75.688,40.58c-15.301,2.989-33.9,4.442-56.862,4.444
	c-15.453,0-30.854-0.621-45.746-1.221c-5.666-0.229-11.207-0.451-16.573-0.634c-17.073-0.576-35.808-1.674-53.927-2.735
	c-15.911-0.933-32.363-1.897-47.539-2.498c-12.027-0.478-23.625-0.717-34.472-0.717c-29.61,0-55.078,1.794-75.696,5.327
	c-9.311,1.598-17.356,3.688-25.137,5.711c-2.27,0.592-4.527,1.179-6.792,1.746c-0.987,0.246-2.176,0.61-3.554,1.029
	C15.815,389.087,11.337,390.45,7.998,390.846L7.998,390.846z M267.5,190.49c-8.125,0.25-27.5,10.25-42.993,38.906
	c-3.615,6.688-14.823,34.504-8.751,48.389c1.835,4.197,5.154,7.076,9.345,8.1c1.083,0.268,2.2,0.4,3.314,0.4
	c13.666,0.002,23.237-19.119,32.64-40.426c0.734-1.661,1.395-3.156,1.971-4.411c2.406-5.253,12.556-28.677,14.561-37.499
	C278.834,198.449,279.25,190.129,267.5,190.49z M474.167,74.449c-3.201-1.766-11.745,4.534-11.745,4.534
	c-16.361,12.992-28.658,29.088-39.255,47.633c-28,49-25.417,87.5-25.417,87.5s14.606-16.627,18.052-22.074
	c4.698-7.426,22.376-32.285,32.323-49.811c10.664-18.792,22.918-44.801,25.956-53.808C474.081,88.423,479,77.115,474.167,74.449z"/>
</svg>
