<?xml version="1.0" encoding="utf-8"?>
<!-- Generator: Adobe Illustrator 16.0.4, SVG Export Plug-In . SVG Version: 6.00 Build 0)  -->
<!DOCTYPE svg PUBLIC "-//W3C//DTD SVG 1.1//EN" "http://www.w3.org/Graphics/SVG/1.1/DTD/svg11.dtd">
<svg version="1.1"
	 id="svg2394" inkscape:version="0.45.1" sodipodi:docbase="C:\Documents and Settings\Dylan Kane\Desktop" sodipodi:version="0.32" inkscape:export-ydpi="29.982681" inkscape:export-xdpi="29.982681" inkscape:export-filename="C:\Documents and Settings\Dylan Kane\Desktop\Cal-athletic-logo.png" inkscape:output_extension="org.inkscape.output.svg.inkscape" sodipodi:docname="Cal-athletic-logo.svg" xmlns:svg="http://www.w3.org/2000/svg" xmlns:dc="http://purl.org/dc/elements/1.1/" xmlns:inkscape="http://www.inkscape.org/namespaces/inkscape" xmlns:rdf="http://www.w3.org/1999/02/22-rdf-syntax-ns#" xmlns:cc="http://web.resource.org/cc/" xmlns:sodipodi="http://sodipodi.sourceforge.net/DTD/sodipodi-0.dtd"
	 xmlns="http://www.w3.org/2000/svg" xmlns:xlink="http://www.w3.org/1999/xlink" x="0px" y="0px" width="500px" height="398.23px"
	 viewBox="0 0 500 398.23" enable-background="new 0 0 500 398.23" xml:space="preserve">
<sodipodi:namedview  inkscape:current-layer="svg2394" inkscape:window-y="0" inkscape:window-x="150" inkscape:window-width="1122" inkscape:pageshadow="2" inkscape:pageopacity="0.0" inkscape:window-height="998" inkscape:zoom="1.5774059" inkscape:cx="343.98185" id="base" bordercolor="#666666" pagecolor="#ffffff" gridtolerance="10.0" guidetolerance="10.0" borderopacity="1.0" objecttolerance="10.0" inkscape:cy="166.4403">
	</sodipodi:namedview>
<path id="text" fill="#172677" d="M7.652,392.23c0.885-2.912,3.187-7.373,5.478-10.311c4.416-5.66,11.623-11.795,21.419-18.234
	c15.107-9.93,29.234-16.214,47.236-21.008c26.114-6.956,53.793-7.539,77.686-7.539l1.276,0.002
	c31.8,0.029,99.796,4.037,149.443,6.965c26.056,1.533,46.635,2.748,53.804,2.895l1.282,0.031c2.098,0.054,5.605,0.146,9.813,0.146
	c30.297,0,40.642-4.743,45.313-7.425c5.084-2.917,10.417-7.083,10-10c-0.607-4.247-11.249-3.917-15.235-4.562
	c-15.851-2.566-29.515-8.854-39.334-15.791c-11.251-7.949-18.337-21.996-18.337-21.996l-7.435,4.936
	c-27.224,18.072-49.723,26.49-70.807,26.492c-1.086,0-2.182-0.023-3.258-0.07c-12.145-0.527-21.513-5.482-24.158-9.878l-4.897-8.136
	l-7.186,6.207c-9.643,8.33-23.121,10.836-28.469,11.527c-2.359,0.307-4.75,0.461-7.107,0.461c-12.293,0-23.472-4.136-31.479-11.643
	c-1.181-1.105-5.535-6.216-6.318-7.354l-5.12-7.438l-6.805,5.922c-2.393,2.114-9.849,6.75-11.351,7.562
	c-15.509,8.373-32.661,12.801-49.598,12.801c-15.263,0-29.876-3.748-42.261-10.842c-29.4-16.842-33.854-49.726-32.415-74.344
	c1.97-33.611,14.218-67.186,36.403-99.787c19.13-28.111,45.524-54.984,76.331-77.715c22.436-16.556,56.765-37.48,92.88-43.154
	c6.354-0.998,13.106-1.972,19.666-1.972c7.415,0,12.971,1.24,16.979,3.795c10.815,6.886,11.123,20.402,10.344,27.847
	c-2.87,27.346-28.147,60.377-55.235,60.379c-5.007-0.004-9.479-1.953-12.002-5.208c-1.982-2.559-2.531-5.633-1.631-9.136
	c2.293-8.932,10.71-11.861,24.301-15.622c1.093-0.302,2.176-0.602,3.242-0.906c21.662-6.165,25.146-19.647,24.256-29.87
	c-0.604-6.943-5.487-14.363-17.388-14.363c-11.178,0-24.58,6.539-26.071,7.284c-29.603,14.801-49.451,39.251-68.834,65.125
	c-39.934,53.31-58.689,104.378-55.748,151.791c1.293,20.832,15.69,43.313,36.696,43.313c7.118,0,14.187-2.573,21.011-7.653
	c10.957-8.149,17.143-20.755,22.604-31.874c1.512-3.082,2.942-5.994,4.42-8.729c8.258-15.25,18.074-28.902,30.095-40.15
	c13.263-12.408,27.198-20.337,42.5-25.333c8.167-2.667,15.492-3.813,24.5-3.667c8.492,0.137,13,5.5,15,9
	c1.5-2.917,3.833-8.083,4.75-8.833c0.841-0.688,15.438-0.62,20-0.417c3.75,0.167,15.354,0.111,16.75,1.625
	c1.646,1.787-3,11.5-8.153,25.309c-2.392,6.407-5.909,14.166-9.564,23.701c-1.424,3.712-2.875,7.409-4.293,11.032
	c-11.631,29.666-19.314,49.267-6.414,55.938c2.518,1.303,5.322,1.963,8.34,1.963c9.224,0,18.471-6.188,25.222-10.705
	c0.79-0.526,1.534-1.024,2.228-1.478c7.902-5.149,12.396-8.329,16.545-12.479l2.581-2.578l-0.257-3.637
	c-2.312-32.91,2.437-68.774,12.39-93.603c13.827-34.499,34.072-65.684,58.541-90.185c12.268-12.285,43.079-34.595,60.007-34.988
	c14.333-0.333,10.305,24.905,9,30.833c-2.833,12.874-17.924,52.878-42.527,93.884c-8.311,13.852-26.416,38.801-38.396,55.311
	c-5.647,7.783-10.108,13.93-12.067,16.869l-1.14,1.709l-0.175,2.049c-1.661,19.547,8.462,39.488,19.23,50.586
	c10.1,10.402,20.793,14.162,31.134,17.797c3.544,1.248,7.209,2.535,10.923,4.105c3.188,1.35,7.151,3.602,7.933,6.68
	c0.77,3.041-1.209,7.808-5.429,13.08c-21.502,26.867-49.083,35.381-75.688,40.58c-15.301,2.988-33.899,4.441-56.862,4.443
	c-15.452,0-30.854-0.621-45.746-1.221c-5.666-0.229-11.207-0.451-16.572-0.635c-17.073-0.575-35.808-1.674-53.927-2.734
	c-15.911-0.934-32.363-1.896-47.539-2.498c-12.027-0.479-23.625-0.717-34.472-0.717c-29.61,0-55.078,1.794-75.696,5.326
	c-9.311,1.599-17.356,3.688-25.137,5.712c-2.27,0.592-4.527,1.179-6.792,1.745c-0.987,0.246-2.176,0.611-3.554,1.029
	C15.469,390.472,10.991,391.835,7.652,392.23L7.652,392.23z M267.154,191.875c-8.125,0.25-27.5,10.25-42.993,38.906
	c-3.615,6.688-14.823,34.504-8.751,48.389c1.835,4.197,5.154,7.076,9.345,8.1c1.083,0.268,2.2,0.4,3.314,0.4
	c13.666,0.002,23.237-19.119,32.64-40.426c0.734-1.661,1.396-3.156,1.971-4.411c2.406-5.253,12.557-28.677,14.562-37.499
	C278.488,199.834,278.904,191.514,267.154,191.875z M473.821,75.834c-3.201-1.766-11.745,4.534-11.745,4.534
	c-16.361,12.992-28.658,29.087-39.255,47.633c-28,49-25.417,87.5-25.417,87.5s14.606-16.628,18.052-22.074
	c4.698-7.426,22.376-32.285,32.323-49.812c10.664-18.791,22.918-44.8,25.956-53.808C473.735,89.808,478.654,78.5,473.821,75.834z"/>
</svg>
