<?xml version="1.0" encoding="utf-8"?>

<!-- License Agreement at http://iconmonstr.com/license/ -->

<!DOCTYPE svg PUBLIC "-//W3C//DTD SVG 1.1//EN" "http://www.w3.org/Graphics/SVG/1.1/DTD/svg11.dtd">
<svg version="1.1" xmlns="http://www.w3.org/2000/svg" xmlns:xlink="http://www.w3.org/1999/xlink" x="0px" y="0px"
	 width="512px" height="512px" viewBox="0 0 512 512" style="enable-background:new 0 0 512 512;" xml:space="preserve">
<path id="disc-13-icon" d="M199.604,314.432c-3.537,4.686-6.37,9.85-8.416,15.457c-23.118-12.121-41.123-32.615-49.706-57.627
	l17.603-2.205C166.696,289.428,181.315,304.91,199.604,314.432z M124.048,274.433l-17.167,2.154
	c11.651,40.745,41.643,73.545,80.452,89.295v-15.465c0-1.031,0.252-1.987,0.302-3.001
	C157.459,333.124,134.09,306.729,124.048,274.433z M370.785,201.097c-12.976-45.473-48.734-81.24-94.215-94.224l-2.146,17.175
	c37.687,11.71,67.477,41.509,79.194,79.195L370.785,201.097z M272.244,141.483l-2.195,17.603
	c22.195,8.717,39.814,26.336,48.532,48.541l17.603-2.205C325.891,175.447,302.219,151.768,272.244,141.483z M238.833,290.333
	c-28.449,0-51.5-23.06-51.5-51.5s23.051-51.5,51.5-51.5c28.449,0,51.5,23.06,51.5,51.5S267.282,290.333,238.833,290.333z
	 M238.833,273.167c18.927,0,34.333-15.398,34.333-34.334c0-18.935-15.406-34.333-34.333-34.333S204.5,219.898,204.5,238.833
	C204.5,257.769,219.906,273.167,238.833,273.167z M374.993,372.696h-10.964v41.366h13.68c11.668,0,17.418-8.105,17.418-19.673
	C395.127,378.975,388.153,372.696,374.993,372.696z M462,350.417v85.833c0,14.225-11.534,25.75-25.75,25.75H247.417
	c-14.216,0-25.75-11.525-25.75-25.75v-85.833c0-14.225,11.534-25.75,25.75-25.75H436.25C450.466,324.667,462,336.192,462,350.417z
	 M338.195,400.919h-14.854c-1.173,8.776-6.387,14.711-15.858,14.711c-12.657,0-18.961-9.53-18.961-21.97
	c0-12.816,6.086-22.522,18.961-22.522c8.147,0,14.3,5.49,15.272,11.483h14.853C335.781,367.34,322.688,359,307.483,359
	c-21.241,0-34.317,14.861-34.317,34.66c0,19.74,13.396,34.006,34.317,34.006C325.538,427.666,336.787,416.61,338.195,400.919z
	 M410.5,393.006c0-20.804-12.707-32.438-31.701-32.438h-30.126v65.632h30.126C398.933,426.199,410.5,413.19,410.5,393.006z
	 M84.333,238.833c0-85.188,69.304-154.5,154.5-154.5s154.5,69.312,154.5,154.5c0,18.081-3.285,35.364-9.019,51.5h36.06
	c4.644-16.396,7.293-33.621,7.293-51.5C427.667,134.542,343.124,50,238.833,50C134.542,50,50,134.542,50,238.833
	c0,86.412,58.105,159.103,137.333,181.541v-36.052C127.417,363.04,84.333,305.941,84.333,238.833z"/>
</svg>
