<?xml version="1.0" encoding="utf-8"?>

<!-- License Agreement at http://iconmonstr.com/license/ -->

<!DOCTYPE svg PUBLIC "-//W3C//DTD SVG 1.1//EN" "http://www.w3.org/Graphics/SVG/1.1/DTD/svg11.dtd">
<svg version="1.1" xmlns="http://www.w3.org/2000/svg" xmlns:xlink="http://www.w3.org/1999/xlink" x="0px" y="0px"
	 width="512px" height="512px" viewBox="0 0 512 512" style="enable-background:new 0 0 512 512;" xml:space="preserve">
<path id="disc-14-icon" d="M187.333,238.833c0,28.44,23.051,51.5,51.5,51.5c28.449,0,51.5-23.06,51.5-51.5s-23.051-51.5-51.5-51.5
	C210.384,187.333,187.333,210.393,187.333,238.833z M273.166,238.833c0,18.936-15.406,34.334-34.333,34.334
	S204.5,257.769,204.5,238.833c0-18.935,15.406-34.333,34.333-34.333S273.166,219.898,273.166,238.833z M272.244,141.483
	c29.975,10.285,53.646,33.964,63.939,63.939l-17.603,2.205c-8.718-22.205-26.337-39.824-48.532-48.541L272.244,141.483z
	 M370.785,201.097l-17.167,2.146c-11.718-37.686-41.508-67.485-79.194-79.195l2.146-17.175
	C322.051,119.857,357.81,155.624,370.785,201.097z M187.333,420.374C108.105,397.936,50,325.245,50,238.833
	C50,134.542,134.542,50,238.833,50c104.291,0,188.834,84.542,188.834,188.833c0,17.879-2.649,35.104-7.293,51.5h-36.06
	c5.733-16.136,9.019-33.419,9.019-51.5c0-85.188-69.304-154.5-154.5-154.5s-154.5,69.312-154.5,154.5
	c0,67.108,43.084,124.207,103,145.489V420.374z M199.604,314.432c-3.537,4.686-6.37,9.85-8.416,15.457
	c-23.118-12.121-41.123-32.615-49.706-57.627l17.603-2.205C166.696,289.428,181.315,304.91,199.604,314.432z M124.048,274.433
	c10.042,32.296,33.411,58.691,63.587,72.983c-0.05,1.014-0.302,1.97-0.302,3.001v15.465c-38.809-15.75-68.801-48.55-80.452-89.295
	L124.048,274.433z M418.982,394.398c0,11.743-4.979,20.569-15.725,20.569h-12.355v-43.269h9.891
	C414.054,371.699,418.982,380.048,418.982,394.398z M297.944,394.398c0,11.81-5.013,20.569-15.708,20.569h-12.372v-43.269h9.907
	C293.049,371.699,297.944,380.048,297.944,394.398z M436.25,324.667H247.417c-14.216,0-25.75,11.525-25.75,25.75v85.833
	c0,14.225,11.534,25.75,25.75,25.75H436.25c14.216,0,25.75-11.525,25.75-25.75v-85.833C462,336.192,450.466,324.667,436.25,324.667z
	 M283.209,427.666H256V359h27.209c17.032,0,28.6,12.054,28.6,33.947C311.809,413.534,301.851,427.666,283.209,427.666z
	 M350.735,427.666h-15.624L314.709,359h14.232l14.049,48.281h0.134L357.374,359h14.267L350.735,427.666z M404.23,427.666h-27.192
	V359h27.192c17.049,0,28.6,12.054,28.6,33.947C432.83,413.534,422.872,427.666,404.23,427.666z"/>
</svg>
