<?xml version="1.0" encoding="UTF-8" standalone="no"?>
<!-- Generator: Adobe Illustrator 19.0.0, SVG Export Plug-In . SVG Version: 6.00 Build 0)  -->

<svg
   xmlns:dc="http://purl.org/dc/elements/1.1/"
   xmlns:cc="http://creativecommons.org/ns#"
   xmlns:rdf="http://www.w3.org/1999/02/22-rdf-syntax-ns#"
   xmlns:svg="http://www.w3.org/2000/svg"
   xmlns="http://www.w3.org/2000/svg"
   xmlns:sodipodi="http://sodipodi.sourceforge.net/DTD/sodipodi-0.dtd"
   xmlns:inkscape="http://www.inkscape.org/namespaces/inkscape"
   version="1.1"
   id="Layer_1"
   x="0px"
   y="0px"
   viewBox="0 0 250 250"
   xml:space="preserve"
   inkscape:version="0.48.5 r10040"
   width="100%"
   height="100%"
   sodipodi:docname="illinois.svg"><metadata
     id="metadata29"><rdf:RDF><cc:Work
         rdf:about=""><dc:format>image/svg+xml</dc:format><dc:type
           rdf:resource="http://purl.org/dc/dcmitype/StillImage" /></cc:Work></rdf:RDF></metadata><defs
     id="defs27" /><sodipodi:namedview
     pagecolor="#ffffff"
     bordercolor="#666666"
     borderopacity="1"
     objecttolerance="10"
     gridtolerance="10"
     guidetolerance="10"
     inkscape:pageopacity="0"
     inkscape:pageshadow="2"
     inkscape:window-width="832"
     inkscape:window-height="670"
     id="namedview25"
     showgrid="false"
     inkscape:zoom="1.1344269"
     inkscape:cx="47.64898"
     inkscape:cy="110.77966"
     inkscape:window-x="179"
     inkscape:window-y="144"
     inkscape:window-maximized="0"
     inkscape:current-layer="Layer_1"
     showguides="true"
     inkscape:guide-bbox="true"><sodipodi:guide
       orientation="0,1"
       position="-30.852583,267.97672"
       id="guide3000" /></sodipodi:namedview><style
     type="text/css"
     id="style3">
	.st0{fill:#FFFFFF;}
</style><g
     id="g5"
     transform="matrix(8.868574,0,0,7.2674419,7.4913945,0)"><rect
       x="1.2"
       y="1.2"
       width="24"
       height="31.9"
       id="rect7" /><path
       d="M 0,34.4 V 0 h 26.5 v 33.1 1.2 H 0 l 0,0.1 z m 25.2,-1.3 v -1.2 1.2 l 0,0 z M 2.5,31.9 H 24 V 2.5 H 2.5 v 29.4 l 0,0 z"
       id="path9"
       inkscape:connector-curvature="0" /></g><g
     id="g11"
     transform="matrix(8.868574,0,0,7.2674419,7.4913945,0)"><rect
       x="1.9"
       y="2"
       width="22.6"
       height="30.4"
       id="rect13" /><path
       class="st0"
       d="M 1.6,32.8 V 1.7 H 25 v 30.8 0.4 H 1.6 l 0,-0.1 z M 24.5,32.4 V 32 32.4 l 0,0 z M 2.3,32.1 h 21.8 l 0,-29.6 H 2.3 v 29.6 l 0,0 z"
       id="path15"
       inkscape:connector-curvature="0"
       style="fill:#ffffff" /></g><g
     id="g17"
     transform="matrix(8.868574,0,0,7.2674419,7.4913945,0)"><path
       class="st0"
       d="M 19.4,28.7 V 27 C 17.1,26.6 15.6,25.9 15.6,19.8 V 14 c 0,-5.8 1,-6.2 3.3,-6.6 V 5.9 H 9.3 C 8.6,5.9 8,6.1 7.6,6.5 7.3,6.8 7.1,7.3 7.1,7.8 7.1,8.3 7.3,8.7 7.6,9 7.9,9.3 8.3,9.4 8.7,9.4 9.3,9.4 9.9,8.9 10,8.2 10,7.8 9.9,7.6 9.8,7.4 9.5,7.2 9.3,7.1 9.1,7.1 8.8,7.1 8.5,7.2 8.4,7.4 8.2,7.6 8.1,7.8 8.2,8 8.3,8.1 8.4,8.2 8.6,8.2 8.7,8.1 8.8,8 8.7,7.8 c 0,0 0,-0.1 0,-0.1 0,0 0.1,-0.1 0.3,-0.1 0.1,0 0.2,0.1 0.2,0.1 C 9.3,7.8 9.4,8 9.3,8.1 9.3,8.5 8.9,8.8 8.5,8.8 8.3,8.8 8,8.7 7.9,8.6 7.8,8.4 7.6,8.2 7.6,7.8 7.6,7.5 7.7,7.1 8,6.9 8.3,6.6 8.8,6.5 9.4,6.5 c 0,0 3.4,0 4.3,0 v 0.6 h -3 c -0.2,0 -0.3,0.2 -0.3,0.3 0,0.2 0.2,0.3 0.3,0.3 h 3 v 0.5 h -2.8 l 0,0 c -0.2,0 -0.3,0.1 -0.3,0.3 0,0.2 0.1,0.3 0.3,0.3 h 2.8 V 26 H 8.9 c -0.2,0 -0.3,0.1 -0.3,0.3 0,0.2 0.1,0.3 0.3,0.3 h 4.8 v 0.7 H 7.9 c -0.4,0 -0.7,0.3 -0.7,0.7 l 0,0.7 h 12.2 z"
       id="path19"
       inkscape:connector-curvature="0"
       style="fill:#ffffff" /><path
       class="st0"
       d="M 11.5,24.9 V 10 C 11.5,9.8 11.4,9.7 11.2,9.7 11,9.7 10.9,9.8 10.9,10 v 15 c 0,0.2 0.1,0.3 0.3,0.3 0.1,-0.1 0.3,-0.2 0.3,-0.4 z"
       id="path21"
       inkscape:connector-curvature="0"
       style="fill:#ffffff" /><path
       class="st0"
       d="M 12.9,24.9 V 10 c 0,-0.2 -0.2,-0.4 -0.4,-0.4 -0.2,0 -0.4,0.2 -0.4,0.4 v 14.9 c 0,0.2 0.2,0.4 0.4,0.4 0.2,-0.1 0.4,-0.2 0.4,-0.4 z"
       id="path23"
       inkscape:connector-curvature="0"
       style="fill:#ffffff" /></g></svg>