<?xml version="1.0" encoding="utf-8"?>
<!-- Generator: Adobe Illustrator 19.0.0, SVG Export Plug-In . SVG Version: 6.00 Build 0)  -->
<svg version="1.1" id="Layer_1" xmlns="http://www.w3.org/2000/svg" xmlns:xlink="http://www.w3.org/1999/xlink" x="0px" y="0px"
	 viewBox="0 0 164.1 191.9" style="enable-background:new 0 0 164.1 191.9;" xml:space="preserve">
<style type="text/css">
	.st0{fill:#FFFFFF;}
</style>
<rect width="164.1" height="191.9"/>
<polygon class="st0" points="100.4,46.2 100.4,56.4 107.4,56.4 107.4,113.1 92.5,113.1 92.5,38.3 100.4,38.3 100.4,28.1 63.2,28.1 
	63.2,38.3 71.1,38.3 71.1,113.1 56,113.1 56,56.4 63.1,56.4 63.1,46.2 28.1,46.2 28.1,56.4 36,56.4 36,122.1 48.9,135.3 71.1,135.3 
	71.1,150.4 63.2,150.4 63.2,163.5 100.4,163.5 100.4,150.4 92.5,150.4 92.5,135.3 114.6,135.3 127.4,122.1 127.4,56.4 135.4,56.4 
	135.4,46.2 "/>
</svg>
