<?xml version="1.0" encoding="utf-8"?>
<!-- Generator: Adobe Illustrator 16.0.4, SVG Export Plug-In . SVG Version: 6.00 Build 0)  -->
<!DOCTYPE svg PUBLIC "-//W3C//DTD SVG 1.1//EN" "http://www.w3.org/Graphics/SVG/1.1/DTD/svg11.dtd">
<svg version="1.1" id="Layer_1" xmlns="http://www.w3.org/2000/svg" xmlns:xlink="http://www.w3.org/1999/xlink" x="0px" y="0px"
	 width="504px" height="504px" viewBox="9.192 9.359 504 504" enable-background="new 9.192 9.359 504 504" xml:space="preserve">
<g>
	<g>
		<path d="M201.076,45.453L201.076,45.453h118.638v32.53H294.52v238.549h47.519V135.707h-22.323h-0.001v-32.53h111.62v32.53h-25.513
			v209.528L365,387.333h-70.479v48.154h25.193v0.002h0.001v41.777H201.076v-41.777v-0.002h25.194v-48.154h-70.8l-41.139-42.098
			V135.707H89.137v-32.529v-0.001h111.621v32.53h-22.643v180.827l48.156-0.002V77.983h-25.195V45.453 M513.192,9.359h-504v504h504
			V9.359"/>
		<polyline fill="#FFFFFF" points="319.714,45.453 201.076,45.453 201.076,77.983 226.271,77.983 226.271,316.532 178.114,316.532 
			178.114,135.707 200.758,135.707 200.758,103.177 89.137,103.177 89.137,135.707 114.332,135.707 114.332,345.235 
			155.471,387.331 226.271,387.331 226.271,435.487 226.271,435.487 201.076,435.487 201.076,435.489 201.076,477.266 
			319.714,477.266 319.714,435.489 319.714,435.487 294.521,435.487 294.52,435.487 294.52,387.331 365,387.331 405.821,345.235 
			405.821,135.707 431.334,135.707 431.334,103.177 319.714,103.177 319.714,135.707 319.715,135.707 342.038,135.707 
			342.038,316.532 294.52,316.532 294.52,77.983 319.714,77.983 319.714,45.453 		"/>
	</g>
</g>
</svg>
