<?xml version="1.0" encoding="utf-8"?>
<!-- Generator: Adobe Illustrator 16.0.4, SVG Export Plug-In . SVG Version: 6.00 Build 0)  -->
<!DOCTYPE svg PUBLIC "-//W3C//DTD SVG 1.1//EN" "http://www.w3.org/Graphics/SVG/1.1/DTD/svg11.dtd">
<svg version="1.1" id="Layer_1" xmlns="http://www.w3.org/2000/svg" xmlns:xlink="http://www.w3.org/1999/xlink" x="0px" y="0px"
	 width="64px" height="64px" viewBox="0 0 64 64" enable-background="new 0 0 64 64" xml:space="preserve">
<polygon fill="#B30838" points="11.535,10.021 11.535,32.737 19.258,40.462 37.715,40.46 37.715,48.349 28.226,48.349 
	28.226,43.204 11.552,43.204 11.552,55.622 19.307,63.438 44.74,63.438 52.465,55.724 52.465,32.741 44.596,25.141 27.655,25.141 
	27.655,16.68 37.031,16.68 37.031,22.51 52.463,22.51 52.465,10.029 43.822,1.189 20.424,1.189 "/>
<g>
	<g>
		<g>
			<g>
				<defs>
					<rect id="SVGID_1_" x="10.973" y="0.597" width="42.054" height="63.403"/>
				</defs>
				<clipPath id="SVGID_2_">
					<use xlink:href="#SVGID_1_"  overflow="visible"/>
				</clipPath>
				<path clip-path="url(#SVGID_2_)" fill="#FFFFFF" d="M12.534,10.479v21.856l7.119,7.122c0,0,17.214,0,19.06-0.001
					c0,1.56,0,8.389,0,9.945c-1.613,0-9.93,0-11.545,0.003c0-1.317,0-5.146,0-5.146H12.55v10.955l7.141,7.223h24.598l7.119-7.12
					V33.181l-7.283-6.989h-17.53c0.001-1.579,0.001-8.936,0-10.516h11.434v5.83h13.379V10.485l-8.039-8.242H20.808L12.534,10.479z"
					/>
			</g>
		</g>
	</g>
	<g>
		<g>
			<g>
				<defs>
					<rect id="SVGID_3_" x="10.973" y="0.597" width="42.054" height="63.403"/>
				</defs>
				<clipPath id="SVGID_4_">
					<use xlink:href="#SVGID_3_"  overflow="visible"/>
				</clipPath>
				<polygon clip-path="url(#SVGID_4_)" fill="#B30838" points="21.229,3.346 13.569,10.991 13.569,31.985 20.084,38.502 
					39.748,38.502 39.746,50.506 26.143,50.506 26.143,45.362 13.583,45.362 13.583,54.852 20.112,61.48 43.873,61.48 
					50.381,54.958 50.383,33.671 43.693,27.296 25.571,27.296 25.57,14.721 39.062,14.721 39.062,20.551 50.381,20.551 
					50.383,10.991 42.951,3.346 				"/>
			</g>
		</g>
	</g>
	<g>
		<g>
			<g>
				<defs>
					<rect id="SVGID_5_" x="10.973" y="0.597" width="42.054" height="63.403"/>
				</defs>
				<clipPath id="SVGID_6_">
					<use xlink:href="#SVGID_5_"  overflow="visible"/>
				</clipPath>
				<path clip-path="url(#SVGID_6_)" fill="#B30838" d="M35.943,35.633c0,0.004-0.008,0.021-0.041,0.058
					C35.918,35.672,35.934,35.651,35.943,35.633"/>
			</g>
		</g>
	</g>
</g>
<polygon fill="#B30838" points="11.535,10.021 11.535,32.737 19.258,40.462 37.716,40.46 37.716,48.349 28.226,48.349 
	28.226,43.204 11.552,43.204 11.552,55.622 19.307,63.438 44.741,63.438 52.465,55.724 52.465,32.741 44.596,25.141 27.655,25.141 
	27.655,16.68 37.03,16.68 37.03,22.51 52.463,22.51 52.465,10.029 43.822,1.189 20.425,1.189 "/>
<g>
	<g>
		<g>
			<g>
				<defs>
					<rect id="SVGID_7_" x="10.973" y="0.597" width="42.055" height="63.403"/>
				</defs>
				<clipPath id="SVGID_8_">
					<use xlink:href="#SVGID_7_"  overflow="visible"/>
				</clipPath>
				<path clip-path="url(#SVGID_8_)" fill="#FFFFFF" d="M12.533,10.479v21.856l7.119,7.122c0,0,17.215,0,19.061-0.001
					c0,1.56,0,8.389,0,9.945c-1.614,0-9.93,0-11.545,0.003c0-1.317,0-5.146,0-5.146H12.55v10.955l7.141,7.223h24.599l7.118-7.12
					V33.181l-7.282-6.989h-17.53c0.001-1.579,0.001-8.936,0-10.516h11.435v5.83h13.378V10.485l-8.039-8.242H20.808L12.533,10.479z"
					/>
			</g>
		</g>
	</g>
	<g>
		<g>
			<g>
				<defs>
					<rect id="SVGID_9_" x="10.973" y="0.597" width="42.055" height="63.403"/>
				</defs>
				<clipPath id="SVGID_10_">
					<use xlink:href="#SVGID_9_"  overflow="visible"/>
				</clipPath>
				<polygon clip-path="url(#SVGID_10_)" fill="#B30838" points="21.229,3.346 13.568,10.991 13.568,31.985 20.084,38.502 
					39.748,38.502 39.746,50.506 26.143,50.506 26.143,45.362 13.582,45.362 13.582,54.852 20.112,61.48 43.873,61.48 50.38,54.958 
					50.382,33.671 43.693,27.296 25.571,27.296 25.57,14.721 39.063,14.721 39.063,20.551 50.38,20.551 50.382,10.991 42.95,3.346 
									"/>
			</g>
		</g>
	</g>
	<g>
		<g>
			<g>
				<defs>
					<rect id="SVGID_11_" x="10.973" y="0.597" width="42.055" height="63.403"/>
				</defs>
				<clipPath id="SVGID_12_">
					<use xlink:href="#SVGID_11_"  overflow="visible"/>
				</clipPath>
				<path clip-path="url(#SVGID_12_)" fill="#B30838" d="M35.944,35.633c0,0.004-0.008,0.021-0.043,0.058
					C35.919,35.672,35.935,35.651,35.944,35.633"/>
			</g>
		</g>
	</g>
</g>
<polygon fill="#B30838" points="11.535,10.021 11.535,32.737 19.258,40.462 37.715,40.46 37.715,48.349 28.226,48.349 
	28.226,43.204 11.552,43.204 11.552,55.622 19.307,63.438 44.74,63.438 52.465,55.724 52.465,32.741 44.596,25.141 27.655,25.141 
	27.655,16.68 37.031,16.68 37.031,22.51 52.463,22.51 52.465,10.029 43.822,1.189 20.424,1.189 "/>
<g>
	<g>
		<g>
			<g>
				<defs>
					<rect id="SVGID_13_" x="10.973" y="0.597" width="42.054" height="63.403"/>
				</defs>
				<clipPath id="SVGID_14_">
					<use xlink:href="#SVGID_13_"  overflow="visible"/>
				</clipPath>
				<path clip-path="url(#SVGID_14_)" fill="#FFFFFF" d="M12.534,10.479v21.856l7.119,7.122c0,0,17.214,0,19.06-0.001
					c0,1.56,0,8.389,0,9.945c-1.613,0-9.93,0-11.545,0.003c0-1.317,0-5.146,0-5.146H12.55v10.955l7.141,7.223h24.598l7.119-7.12
					V33.181l-7.283-6.989h-17.53c0.001-1.579,0.001-8.936,0-10.516h11.434v5.83h13.379V10.485l-8.039-8.242H20.808L12.534,10.479z"
					/>
			</g>
		</g>
	</g>
	<g>
		<g>
			<g>
				<defs>
					<rect id="SVGID_15_" x="10.973" y="0.597" width="42.054" height="63.403"/>
				</defs>
				<clipPath id="SVGID_16_">
					<use xlink:href="#SVGID_15_"  overflow="visible"/>
				</clipPath>
				<polygon clip-path="url(#SVGID_16_)" fill="#B30838" points="21.229,3.346 13.569,10.991 13.569,31.985 20.084,38.502 
					39.748,38.502 39.746,50.506 26.143,50.506 26.143,45.362 13.583,45.362 13.583,54.852 20.112,61.48 43.873,61.48 
					50.381,54.958 50.383,33.671 43.693,27.296 25.571,27.296 25.57,14.721 39.062,14.721 39.062,20.551 50.381,20.551 
					50.383,10.991 42.951,3.346 				"/>
			</g>
		</g>
	</g>
	<g>
		<g>
			<g>
				<defs>
					<rect id="SVGID_17_" x="10.973" y="0.597" width="42.054" height="63.403"/>
				</defs>
				<clipPath id="SVGID_18_">
					<use xlink:href="#SVGID_17_"  overflow="visible"/>
				</clipPath>
				<path clip-path="url(#SVGID_18_)" fill="#B30838" d="M35.943,35.633c0,0.004-0.008,0.021-0.041,0.058
					C35.918,35.672,35.934,35.651,35.943,35.633"/>
			</g>
		</g>
	</g>
</g>
</svg>
