<?xml version="1.0" encoding="utf-8"?>
<!-- Generator: Adobe Illustrator 16.0.4, SVG Export Plug-In . SVG Version: 6.00 Build 0)  -->
<!DOCTYPE svg PUBLIC "-//W3C//DTD SVG 1.1//EN" "http://www.w3.org/Graphics/SVG/1.1/DTD/svg11.dtd">
<svg version="1.1" id="Layer_1" xmlns="http://www.w3.org/2000/svg" xmlns:xlink="http://www.w3.org/1999/xlink" x="0px" y="0px"
	 width="65.078px" height="98.113px" viewBox="0 0 65.078 98.113" enable-background="new 0 0 65.078 98.113" xml:space="preserve">
<polygon fill="#B30838" points="0.84,14.582 0.84,49.735 12.79,61.688 41.354,61.686 41.354,73.893 26.669,73.893 26.669,65.932 
	0.866,65.932 0.866,85.15 12.866,97.245 52.227,97.245 64.177,85.304 64.177,49.745 52.001,37.978 25.785,37.978 25.786,24.888 
	40.293,24.887 40.293,33.909 64.176,33.909 64.177,14.596 50.805,0.915 14.596,0.915 "/>
<g>
	<g>
		<defs>
			<rect id="SVGID_1_" y="0" width="65.078" height="98.113"/>
		</defs>
		<clipPath id="SVGID_2_">
			<use xlink:href="#SVGID_1_"  overflow="visible"/>
		</clipPath>
		<path clip-path="url(#SVGID_2_)" fill="#FFFFFF" d="M2.413,15.294v33.82L13.43,60.133c0,0,26.638,0,29.497-0.001
			c0,2.412,0,12.98-0.001,15.392c-2.496,0-15.368,0-17.868,0.002c0.001-2.037,0.001-7.961,0.001-7.961l-22.62-0.001v16.952
			L13.49,95.693h38.066l11.01-11.018V50.423L51.303,39.609h-27.13c0.001-2.445,0.001-13.831,0-16.275h17.693v9.021h20.7V15.302
			L50.129,2.547H15.218L2.413,15.294z"/>
	</g>
	<g>
		<defs>
			<rect id="SVGID_3_" y="0" width="65.078" height="98.113"/>
		</defs>
		<clipPath id="SVGID_4_">
			<use xlink:href="#SVGID_3_"  overflow="visible"/>
		</clipPath>
		<polygon clip-path="url(#SVGID_4_)" fill="#B30838" points="15.868,4.253 4.015,16.083 4.015,48.571 14.098,58.656 44.527,58.656 
			44.525,77.233 23.475,77.233 23.475,69.271 4.038,69.272 4.038,83.956 14.142,94.215 50.913,94.215 60.98,84.123 60.982,51.181 
			50.634,41.316 22.589,41.315 22.588,21.856 43.467,21.856 43.467,30.878 60.98,30.878 60.982,16.083 49.482,4.253 		"/>
	</g>
	<g>
		<defs>
			<rect id="SVGID_5_" y="0" width="65.078" height="98.113"/>
		</defs>
		<clipPath id="SVGID_6_">
			<use xlink:href="#SVGID_5_"  overflow="visible"/>
		</clipPath>
		<path clip-path="url(#SVGID_6_)" fill="#B30838" d="M38.643,54.215c0,0.005-0.014,0.031-0.066,0.088
			C38.602,54.277,38.624,54.246,38.643,54.215"/>
	</g>
</g>
</svg>
