<?xml version="1.0" encoding="utf-8"?>
<!-- Generator: Adobe Illustrator 22.1.0, SVG Export Plug-In . SVG Version: 6.00 Build 0)  -->
<svg version="1.1" id="Layer_1" xmlns="http://www.w3.org/2000/svg" xmlns:xlink="http://www.w3.org/1999/xlink" x="0px" y="0px"
	 viewBox="0 0 550 600" style="enable-background:new 0 0 550 600;" xml:space="preserve">
<style type="text/css">
	.st0{fill:#BE5927;}
</style>
<g>
	<defs>
		<rect id="SVGID_1_" x="-372.7" y="-196" width="1224" height="792"/>
	</defs>
	<clipPath id="SVGID_2_">
		<use xlink:href="#SVGID_1_"  style="overflow:visible;"/>
	</clipPath>
</g>
<path class="st0" d="M493.6,264.9V161.7h-89.1v-43.4h31.3V47H305.4v71.3H338v43.4H211.9v-43.4h32.7V47H114.2v71.3h31.3v43.4H56.4
	v103.2H123v-31h22.6v56.7c0,121.5,92.7,144.3,92.7,144.3v52.1h-26.3V553h126.1v-66.1h-26.3v-52.1c0,0,92.7-22.8,92.7-144.3v-56.7
	H427v31H493.6z M238.3,363c0,0-26.3-15.4-26.3-43.9v-85.2h26.3V363z M338,319.1c0,28.5-26.3,43.9-26.3,43.9V233.9H338V319.1z"/>
</svg>
